# xmcd CD database file
#
# Track frame offsets:
#	200
#	8290
#	21955
#	31985
#	41187
#	53037
#	69997
#	84302
#	95500
#	110467
#	118810
#	131020
#
# Disc length: 1901 seconds
#
# Revision: 0
# Processed by: cddbd v1.4PL0 Copyright (c) Steve Scherf et al.
# Submitted via: CdAid (MTCDDB.DLL V2003.07.15)
#
DISCID=93076b0c
DTITLE=Ralph Stanley and the Clinch Mountain boys - Back to the Cross
DYEAR=1992
DGENRE=Bluegrass
TTITLE0=I'm Gonna Sing
TTITLE1=Back to the Cross
TTITLE2=Waitin' for the Master to Come
TTITLE3=Give Me Jesus
TTITLE4=Sinner Man
TTITLE5=No Burdens Pass Through
TTITLE6=Silent Warden
TTITLE7=You'd Better Stop
TTITLE8=When We Meet On That Evergreen Shore
TTITLE9=Gonna' Be Movin'
TTITLE10=Over the Sunset Hill
TTITLE11=He Took Me In
EXTD=ID3G:  89 YEAR: 1992
EXTT0=
EXTT1=
EXTT2=
EXTT3=
EXTT4=
EXTT5=
EXTT6=
EXTT7=
EXTT8=
EXTT9=
EXTT10=
EXTT11=
PLAYORDER=
